<?xml version="1.0" standalone="no"?>
<!DOCTYPE svg PUBLIC "-//W3C//DTD SVG 20010904//EN"
 "http://www.w3.org/TR/2001/REC-SVG-20010904/DTD/svg10.dtd">
<svg version="1.0" xmlns="http://www.w3.org/2000/svg"
 width="293.000000pt" height="293.000000pt" viewBox="0 0 293.000000 293.000000"
 preserveAspectRatio="xMidYMid meet">
<metadata>
Created by potrace 1.14, written by Peter Selinger 2001-2017
</metadata>
<g transform="translate(0.000000,293.000000) scale(0.100000,-0.100000)"
fill="#000000" stroke="none">
<path d="M1630 2538 c-11 -10 -20 -24 -21 -31 -1 -20 -7 -49 -11 -51 -2 -1
-23 -10 -47 -19 -42 -16 -45 -16 -69 3 -38 31 -73 25 -114 -17 -48 -52 -52
-69 -27 -111 20 -35 20 -37 3 -76 -10 -23 -19 -42 -20 -44 -1 -1 -11 -5 -23
-7 -65 -12 -81 -36 -75 -115 4 -49 30 -80 68 -80 17 0 27 -11 42 -47 l20 -48
-22 -33 c-31 -45 -22 -70 45 -125 36 -30 69 -30 101 -2 13 11 23 10 62 -7 39
-18 47 -26 53 -55 8 -43 38 -61 102 -62 45 0 56 4 73 26 11 14 20 35 20 47 0
17 11 26 54 40 53 18 54 18 75 -1 29 -27 64 -19 112 27 44 42 50 77 20 116
-19 24 -19 26 -2 65 22 48 20 47 55 53 50 9 66 32 66 97 0 63 -13 85 -58 95
-15 3 -32 7 -38 9 -5 1 -16 21 -23 43 -12 35 -11 42 5 67 31 47 28 69 -15 114
-22 23 -44 42 -50 42 -6 1 -17 2 -23 3 -7 2 -27 -7 -43 -19 l-30 -22 -44 21
c-27 13 -45 29 -47 40 -7 49 -16 64 -42 75 -40 17 -109 11 -132 -11z m135
-304 c11 -4 34 -23 52 -42 60 -65 59 -163 -2 -227 -29 -29 -85 -55 -120 -55
-35 0 -92 26 -120 56 -57 58 -60 162 -7 222 50 56 123 73 197 46z"/>
<path d="M750 2104 c-32 -14 -40 -31 -40 -85 0 -33 -4 -41 -27 -51 -16 -7 -40
-20 -54 -30 -26 -17 -28 -17 -70 5 -24 13 -50 23 -56 22 -7 -2 -17 -3 -23 -4
-5 0 -31 -28 -58 -62 -56 -68 -57 -88 -11 -138 l29 -32 -17 -59 c-15 -56 -17
-59 -58 -69 -53 -13 -76 -45 -71 -98 3 -21 5 -38 6 -38 1 0 3 -12 4 -28 4 -37
42 -76 75 -75 51 1 60 -2 67 -24 3 -13 15 -35 26 -51 19 -27 19 -27 -1 -61
-21 -34 -27 -72 -13 -92 18 -27 116 -94 137 -94 12 0 37 14 54 32 27 28 34 31
51 20 11 -7 30 -12 43 -12 34 0 67 -28 67 -56 0 -14 11 -35 25 -48 25 -23 41
-25 135 -11 14 2 30 4 37 4 16 1 35 38 40 76 4 41 14 68 21 61 3 -3 25 6 50
20 l44 26 40 -22 c21 -12 46 -19 54 -16 11 4 9 -2 -5 -20 -18 -23 -21 -41 -21
-119 0 -109 18 -145 73 -145 58 0 76 -10 88 -49 6 -20 18 -48 27 -62 14 -25
13 -29 -21 -78 -23 -32 -34 -60 -32 -73 6 -27 121 -146 154 -159 21 -8 33 -4
76 26 l51 35 45 -22 c24 -11 55 -24 69 -28 21 -5 26 -14 32 -59 10 -81 28 -94
135 -96 104 -2 139 11 147 55 3 16 9 44 12 61 4 21 14 34 32 41 15 5 46 19 70
29 46 21 48 20 102 -21 22 -18 44 -26 59 -23 27 4 114 79 149 129 22 31 22 33
6 73 -9 22 -19 41 -23 41 -3 0 -12 9 -19 20 -11 18 -9 31 9 83 12 34 25 65 28
69 5 5 66 17 99 18 6 0 21 9 32 20 17 17 20 33 20 118 0 123 -9 136 -95 146
l-60 8 -27 64 -26 65 25 27 c29 31 50 71 47 90 -1 6 -2 17 -3 24 0 6 -33 42
-72 81 -64 61 -75 68 -101 63 -16 -3 -48 -21 -71 -40 -39 -32 -44 -33 -67 -21
-14 8 -41 20 -60 26 -42 14 -50 24 -50 67 0 41 -25 102 -42 103 -46 5 -168 7
-191 2 -36 -6 -58 -41 -62 -95 -1 -24 -3 -46 -4 -50 0 -3 -17 -12 -37 -18 -20
-7 -48 -18 -62 -26 -37 -19 -39 -18 -85 18 -63 51 -93 45 -167 -30 -87 -89
-90 -103 -43 -172 l38 -55 -20 -41 c-11 -22 -24 -51 -30 -65 -8 -19 -20 -25
-55 -30 -25 -4 -46 -6 -47 -5 -1 1 11 16 27 33 17 18 30 34 30 37 0 3 8 15 17
26 30 35 27 66 -11 107 -27 30 -32 42 -25 56 6 9 12 31 14 48 5 39 9 42 62 58
53 15 65 37 59 104 -2 28 -5 62 -5 74 -1 30 -42 55 -94 58 -55 3 -57 4 -55 13
2 11 -13 45 -28 62 -11 13 -11 20 1 40 44 77 42 106 -6 141 -17 12 -42 32 -55
44 -32 30 -77 24 -116 -16 -16 -16 -31 -29 -33 -29 -1 0 -21 7 -44 15 -23 8
-45 13 -49 12 -4 -1 -14 19 -22 44 -24 73 -33 80 -108 77 -35 -2 -77 -8 -92
-14z m215 -385 c99 -46 142 -161 100 -266 -14 -34 -85 -116 -85 -98 0 3 -10
-1 -23 -10 -56 -36 -173 -12 -229 47 -40 43 -54 75 -57 130 -2 48 16 118 31
118 4 0 8 5 8 10 0 36 101 89 168 90 23 0 62 -9 87 -21z m1087 -523 c47 -23
95 -76 121 -135 15 -34 18 -58 15 -106 -6 -71 -26 -113 -75 -161 -51 -50 -89
-66 -163 -72 -53 -3 -74 0 -112 17 -165 78 -204 283 -77 410 77 77 189 95 291
47z"/>
</g>
</svg>
